<svg aria-hidden="true" style="position: absolute; width: 0; height: 0; overflow: hidden;" version="1.1" xmlns="http://www.w3.org/2000/svg" xmlns:xlink="http://www.w3.org/1999/xlink">
<defs>
<symbol id="building-icon" viewBox="0 0 36 32">
<title>building-icon</title>
<path d="M32.69 11.841v17.492c0 1.178-1.021 2.133-2.28 2.133h-25.084c-1.259 0-2.28-0.955-2.28-2.133 0-16.536-0.002-13.438 0.005-17.492h29.64z"></path>
<path d="M32.69 11.841v4.040c0 0.874-0.749 1.598-1.684 1.602-0.010 0-26.259 0-26.278 0-0.934-0.004-1.683-0.728-1.683-1.602 0-1.166-0.001-0.361 0.005-4.040h29.64z"></path>
<path d="M23.64 21.933v9.533h-11.544v-9.533c0-1.178 1.021-2.133 2.28-2.133h6.984c1.259 0 2.28 0.955 2.28 2.133z"></path>
<path d="M34.401 11.841c0 2.134-1.85 3.867-4.133 3.867s-4.133-1.731-4.133-3.867c0 2.135-1.851 3.867-4.133 3.867s-4.133-1.731-4.133-3.867c0 2.135-1.851 3.867-4.133 3.867s-4.133-1.731-4.133-3.867c-0.004 2.121-1.87 3.867-4.133 3.867-2.26 0-4.13-1.743-4.133-3.867 0-3.361-0.010-3.154 0.025-3.308 0.034-0.151-0.203 0.385 3.383-7.357 0.181-0.39 0.592-0.643 1.046-0.643h24.158c0.454 0 0.865 0.253 1.046 0.643 3.588 7.748 3.349 7.206 3.383 7.357 0.035 0.154 0.025-0.056 0.025 3.308z"></path>
<path d="M34.401 11.841c0 2.134-1.85 3.867-4.133 3.867s-4.133-1.731-4.133-3.867c0 2.135-1.851 3.867-4.133 3.867s-4.133-1.731-4.133-3.867c0 2.135-1.851 3.867-4.133 3.867s-4.133-1.731-4.133-3.867c-0.004 2.121-1.87 3.867-4.133 3.867-2.26 0-4.13-1.743-4.133-3.867-0.006-3.379-0.005-3.176 0.025-3.308h33.016c0.035 0.154 0.025-0.056 0.025 3.308z"></path>
<path d="M29.639 3.383c-7.239-0.932-14.544 0.263-20.453 4.429-0.665 0.469-1.476 0.722-2.309 0.722h-5.517c0.034-0.151-0.203 0.385 3.383-7.357 0.181-0.39 0.592-0.643 1.046-0.643h24.158c0.454 0 0.865 0.252 1.046 0.642l0.159 0.343c0.445 0.961-0.404 2.007-1.513 1.865z"></path>
<path d="M33.26 18.067v11.267c0 1.47-1.279 2.667-2.85 2.667h-25.084c-1.572 0-2.85-1.196-2.85-2.667v-11.267c0-0.294 0.255-0.533 0.57-0.533s0.57 0.239 0.57 0.533v11.267c0 0.882 0.767 1.6 1.71 1.6h6.2v-9c0-1.47 1.279-2.667 2.851-2.667h6.984c1.572 0 2.851 1.196 2.851 2.667v6.867c0 0.294-0.255 0.533-0.57 0.533s-0.57-0.239-0.57-0.533v-6.867c0-0.882-0.767-1.6-1.71-1.6h-6.984c-0.943 0-1.71 0.718-1.71 1.6v9h4.632v-8.4c0-0.294 0.255-0.533 0.57-0.533s0.57 0.239 0.57 0.533v8.4h11.972c0.943 0 1.71-0.718 1.71-1.6v-11.267c0-0.294 0.255-0.533 0.57-0.533s0.57 0.239 0.57 0.533zM4.471 8.533c0 0.295 0.255 0.533 0.57 0.533 31.018 0 29.48 0.052 29.707-0.111 0.118-0.085 0.196-0.208 0.217-0.349 0.032-0.214 0.236 0.313-3.747-8.286-0.090-0.195-0.296-0.321-0.523-0.321h-25.654c-0.227 0-0.433 0.126-0.523 0.321l-3.706 8c-0.066 0.141-0.047-0.083-0.047 3.521 0.004 2.426 2.114 4.399 4.703 4.399 1.78 0 3.333-0.933 4.132-2.304 1.783 3.066 6.481 3.069 8.268 0.002 1.785 3.065 6.481 3.066 8.266 0 0.798 1.37 2.351 2.302 4.133 2.302 2.593 0 4.703-1.974 4.703-4.4 0-0.294-0.255-0.533-0.57-0.533s-0.57 0.239-0.57 0.533c0 1.838-1.598 3.333-3.563 3.333s-3.563-1.495-3.563-3.333c0-0.294-0.255-0.533-0.57-0.533s-0.57 0.239-0.57 0.533c0 1.838-1.598 3.333-3.563 3.333s-3.563-1.495-3.563-3.333c0-0.294-0.255-0.533-0.57-0.533s-0.57 0.239-0.57 0.533c0 1.838-1.598 3.333-3.563 3.333-1.921 0-3.563-1.444-3.563-3.36 0-0.294-0.255-0.533-0.57-0.533s-0.57 0.239-0.57 0.533c0 1.9-1.632 3.36-3.563 3.36-1.962 0-3.56-1.496-3.563-3.333v-3.197l3.51-7.577h24.906l3.211 6.933h-28.491c-0.315 0-0.57 0.239-0.57 0.533z"></path>
</symbol>
<symbol id="dribbble-icon" viewBox="0 0 32 32">
<title>dribbble-icon</title>
<path d="M15.5 0c-8.547 0-15.5 6.953-15.5 15.5s6.953 15.5 15.5 15.5c8.547 0 15.5-6.953 15.5-15.5s-6.953-15.5-15.5-15.5zM25.748 7.148c1.844 2.253 2.96 5.122 2.99 8.247-0.436-0.092-4.814-0.98-9.219-0.426-0.36-0.878-0.699-1.65-1.164-2.601 4.895-1.999 7.114-4.843 7.393-5.22zM24.276 5.617c-0.238 0.339-2.231 3.018-6.939 4.782-2.169-3.986-4.574-7.261-4.94-7.75 4.198-1.012 8.623 0.079 11.879 2.968zM9.871 3.539c0.349 0.479 2.715 3.757 4.909 7.657-6.193 1.645-11.648 1.621-12.24 1.613 0.859-4.108 3.627-7.523 7.331-9.27zM2.261 15.52c0-0.135 0.003-0.27 0.007-0.405 0.579 0.012 6.995 0.095 13.607-1.884 0.379 0.742 0.741 1.495 1.073 2.247-4.787 1.348-9.137 5.22-11.283 8.894-2.115-2.347-3.404-5.452-3.404-8.852zM7.374 25.965c1.383-2.827 5.136-6.476 10.474-8.297 1.859 4.83 2.628 8.878 2.824 10.040-4.257 1.813-9.376 1.316-13.298-1.743zM22.897 26.495c-0.136-0.805-0.84-4.681-2.572-9.44 4.149-0.664 7.794 0.423 8.247 0.566-0.59 3.684-2.705 6.865-5.675 8.874z"></path>
</symbol>
<symbol id="facebook-icon" viewBox="0 0 17 32">
<title>facebook-icon</title>
<path d="M15.738 17.688l0.873-5.691h-5.461v-3.693c0-1.557 0.763-3.075 3.209-3.075h2.483v-4.845c0 0-2.253-0.384-4.407-0.384-4.497 0-7.436 2.726-7.436 7.66v4.337h-4.999v5.691h4.999v13.758h6.152v-13.758h4.587z"></path>
</symbol>
<symbol id="github-icon" viewBox="0 0 32 32">
<title>github-icon</title>
<path d="M10.703 25.123c0 0.129-0.148 0.232-0.335 0.232-0.213 0.019-0.361-0.084-0.361-0.232 0-0.129 0.148-0.232 0.335-0.232 0.194-0.019 0.361 0.084 0.361 0.232zM8.697 24.832c-0.045 0.129 0.084 0.277 0.277 0.316 0.168 0.065 0.361 0 0.4-0.129s-0.084-0.277-0.277-0.336c-0.168-0.045-0.355 0.019-0.4 0.148zM11.548 24.723c-0.187 0.045-0.316 0.168-0.297 0.316 0.019 0.129 0.187 0.213 0.381 0.168 0.187-0.045 0.316-0.168 0.297-0.297-0.019-0.123-0.194-0.206-0.381-0.187zM15.794 0c-8.948 0-15.794 6.794-15.794 15.742 0 7.155 4.503 13.277 10.935 15.432 0.826 0.148 1.116-0.361 1.116-0.781 0-0.4-0.019-2.607-0.019-3.961 0 0-4.516 0.968-5.465-1.923 0 0-0.736-1.877-1.794-2.361 0 0-1.477-1.013 0.103-0.993 0 0 1.606 0.129 2.49 1.664 1.413 2.49 3.781 1.774 4.703 1.348 0.148-1.032 0.568-1.748 1.032-2.174-3.606-0.4-7.245-0.923-7.245-7.129 0-1.774 0.49-2.665 1.523-3.8-0.168-0.419-0.716-2.148 0.168-4.381 1.348-0.419 4.452 1.742 4.452 1.742 1.29-0.361 2.677-0.548 4.052-0.548s2.761 0.187 4.052 0.548c0 0 3.103-2.168 4.452-1.742 0.884 2.239 0.336 3.961 0.168 4.381 1.032 1.142 1.664 2.032 1.664 3.8 0 6.226-3.8 6.723-7.406 7.129 0.594 0.51 1.097 1.477 1.097 2.993 0 2.174-0.019 4.865-0.019 5.394 0 0.419 0.297 0.929 1.116 0.781 6.452-2.142 10.826-8.264 10.826-15.419 0-8.948-7.258-15.742-16.206-15.742zM6.271 22.252c-0.084 0.064-0.064 0.213 0.045 0.335 0.103 0.103 0.252 0.148 0.335 0.065 0.084-0.065 0.064-0.213-0.045-0.336-0.103-0.103-0.252-0.148-0.335-0.064zM5.574 21.729c-0.045 0.084 0.019 0.187 0.148 0.252 0.103 0.064 0.232 0.045 0.277-0.045 0.045-0.084-0.019-0.187-0.148-0.252-0.129-0.039-0.232-0.019-0.277 0.045zM7.665 24.026c-0.103 0.084-0.064 0.277 0.084 0.4 0.148 0.148 0.336 0.168 0.419 0.065 0.084-0.084 0.045-0.277-0.084-0.4-0.142-0.148-0.335-0.168-0.419-0.065zM6.929 23.077c-0.103 0.064-0.103 0.232 0 0.381s0.277 0.213 0.361 0.148c0.103-0.084 0.103-0.252 0-0.4-0.090-0.148-0.258-0.213-0.361-0.129z"></path>
</symbol>
<symbol id="instagram-icon" viewBox="0 0 34 32">
<title>instagram-icon</title>
<path d="M16.012 7.798c-4.543 0-8.207 3.664-8.207 8.207s3.664 8.207 8.207 8.207c4.543 0 8.207-3.664 8.207-8.207s-3.664-8.207-8.207-8.207zM16.012 21.341c-2.936 0-5.336-2.393-5.336-5.336s2.393-5.336 5.336-5.336 5.336 2.393 5.336 5.336c0 2.943-2.4 5.336-5.336 5.336zM26.47 7.463c0 1.064-0.857 1.914-1.914 1.914-1.064 0-1.914-0.857-1.914-1.914s0.857-1.914 1.914-1.914c1.057 0 1.914 0.857 1.914 1.914zM31.905 9.405c-0.121-2.564-0.707-4.836-2.586-6.707-1.871-1.871-4.143-2.457-6.707-2.586-2.643-0.15-10.564-0.15-13.207 0-2.557 0.121-4.829 0.707-6.707 2.579s-2.457 4.143-2.586 6.707c-0.15 2.643-0.15 10.564 0 13.207 0.121 2.564 0.707 4.836 2.586 6.707s4.143 2.457 6.707 2.586c2.643 0.15 10.564 0.15 13.207 0 2.564-0.121 4.836-0.707 6.707-2.586 1.872-1.871 2.457-4.143 2.586-6.707 0.15-2.643 0.15-10.557 0-13.2zM28.491 25.441c-0.557 1.4-1.636 2.479-3.043 3.043-2.107 0.836-7.107 0.643-9.436 0.643s-7.336 0.186-9.436-0.643c-1.4-0.557-2.479-1.636-3.043-3.043-0.836-2.107-0.643-7.107-0.643-9.436s-0.186-7.336 0.643-9.436c0.557-1.4 1.636-2.479 3.043-3.043 2.107-0.836 7.107-0.643 9.436-0.643s7.336-0.186 9.436 0.643c1.4 0.557 2.479 1.636 3.043 3.043 0.836 2.107 0.643 7.107 0.643 9.436s0.193 7.336-0.643 9.436z"></path>
</symbol>
<symbol id="logo" viewBox="0 0 33 32">
<title>logo</title>
<path d="M24.101 16c0-0.405 0.279-0.76 0.677-0.852 2.967-0.692 5.038-3.305 5.038-6.361 0-3.606-2.926-6.537-6.518-6.537-3.066 0-5.75 2.183-6.378 5.189l7.182 8.561zM24.101 16c0 0.405 0.279 0.76 0.676 0.852l-0.676-0.852zM16.919 24.561c0.628 3.006 3.313 5.189 6.378 5.189 3.593 0 6.518-2.932 6.518-6.537 0-3.056-2.071-5.669-5.038-6.361l-7.858 7.709zM16.919 24.561c-0.084-0.405-0.441-0.696-0.855-0.696s-0.771 0.291-0.855 0.696c-0.628 3.006-3.313 5.189-6.378 5.189-3.592 0-6.518-2.932-6.518-6.537 0-3.056 2.071-5.669 5.038-6.361 0.397-0.092 0.677-0.447 0.677-0.852s-0.279-0.76-0.676-0.852l9.569 9.414zM15.209 7.439c-0.628-3.006-3.313-5.189-6.378-5.189-3.592 0-6.518 2.932-6.518 6.537 0 3.056 2.071 5.669 5.038 6.361l7.858-7.709zM15.209 7.439c0.084 0.405 0.441 0.696 0.855 0.696s0.771-0.291 0.855-0.696l-1.711-0zM8.83 31.5c3.055 0 5.806-1.705 7.234-4.28 1.428 2.576 4.178 4.28 7.234 4.28 4.56 0 8.266-3.718 8.266-8.287 0-3.061-1.644-5.777-4.194-7.213 2.55-1.436 4.194-4.152 4.194-7.213 0-4.569-3.707-8.287-8.266-8.287-3.055 0-5.806 1.705-7.234 4.28-1.428-2.576-4.178-4.28-7.234-4.28-4.56 0-8.266 3.718-8.266 8.287 0 3.061 1.644 5.777 4.194 7.213-2.55 1.436-4.194 4.152-4.194 7.213 0 4.569 3.707 8.287 8.266 8.287z"></path>
</symbol>
<symbol id="megaphone-icon" viewBox="0 0 35 32">
<title>megaphone-icon</title>
<path d="M29.582 14.695c0.688 1.115-0.137 2.516-1.513 2.565-5.023 0.184-10.145 1.358-14.974 3.668l-1.597 0.862c0 0.007-0.022-0.035 3.865 6.289 0.357 0.579 0.145 1.318-0.473 1.652l-1.259 0.68c-0.618 0.334-1.409 0.136-1.765-0.443l-3.877-6.282-0.629 0.34c-1.236 0.667-2.817 0.271-3.531-0.886l-2.908-4.712c-0.713-1.157-0.29-2.636 0.947-3.304l5.736-3.098c4.384-2.653 8.098-6.165 10.883-10.297 0.734-1.090 2.443-1.058 3.131 0.057l2.488 4.032c1.43-0.772 3.258-0.314 4.083 1.024s0.335 3.047-1.094 3.819l2.489 4.032z"></path>
<path d="M28.187 6.843c0.825 1.337 0.335 3.047-1.094 3.819l-2.989-4.843c1.43-0.772 3.258-0.314 4.083 1.024z"></path>
<path d="M21.616 1.787c0.343 0.557 0.321 1.248-0.059 1.783-3.065 4.321-7.173 8.225-12.198 11.266l-6.721 3.63c-0.461 0.25-0.827 0.596-1.082 0.995l-0.637-1.032c-0.713-1.157-0.29-2.636 0.947-3.304l5.736-3.098c4.384-2.653 8.098-6.165 10.883-10.297 0.734-1.090 2.443-1.058 3.131 0.057z"></path>
<path d="M7.602 12.028l5.493 8.901c-1.101 0.594-4.637 2.504-5.736 3.098-1.236 0.667-2.817 0.271-3.531-0.886l-2.908-4.712c-0.713-1.157-0.29-2.636 0.947-3.304l5.736-3.098z"></path>
<path d="M9.342 14.847c-7.299 3.942-6.815 3.668-7.050 3.839-0.443 0.323-1.091 0.199-1.372-0.256-0.713-1.157-0.29-2.636 0.947-3.304l5.736-3.098 1.74 2.819z"></path>
<path d="M12.544 23.492c-2.042 1.106-0.54 0.292-3.506 1.894l-1.049-1.699 3.51-1.895 1.046 1.7z"></path>
<path d="M28.009 9.895c-0.237 0.304-0.545 0.568-0.916 0.768l-2.989-4.843c0.371-0.201 0.769-0.318 1.169-0.358 0.151 0.244 2.604 4.22 2.736 4.433z"></path>
<path d="M27.854 11.13c2.24-1.761 1.467-5.243-1.333-5.965-0.732-0.189-1.489-0.149-2.183 0.105l-2.225-3.708c-0.905-1.509-3.15-1.549-4.114-0.078-2.736 4.176-6.381 7.728-10.709 10.423-0.246 0.153-0.338 0.47-0.192 0.727 0.023 0.041 3.708 6.182 3.733 6.222 0.159 0.264 0.509 0.355 0.784 0.202s0.369-0.49 0.21-0.755l-3.455-5.759c4.126-2.654 7.781-6.169 10.601-10.472 0.504-0.77 1.676-0.746 2.149 0.041l7.965 13.276c0.473 0.788-0.094 1.775-1.037 1.811-5.293 0.198-10.475 1.501-15.213 3.833-0.020 0.010-5.392 2.995-5.762 3.2-0.96 0.534-2.192 0.216-2.747-0.708l-2.908-4.847c-0.554-0.924-0.224-2.11 0.736-2.643l3.5-1.944c0.275-0.153 0.369-0.49 0.21-0.755s-0.51-0.355-0.784-0.202l-3.5 1.944c-1.508 0.838-2.027 2.701-1.156 4.152l2.908 4.847c0.871 1.452 2.807 1.951 4.315 1.113l0.132-0.073 3.59 5.984c0.516 0.859 1.656 1.154 2.55 0.657l1.259-0.7c0.893-0.496 1.199-1.594 0.683-2.453l-2.544-4.241c-0.159-0.264-0.51-0.355-0.784-0.202s-0.369 0.49-0.21 0.755l2.545 4.241c0.198 0.331 0.081 0.753-0.263 0.944l-1.259 0.7c-0.344 0.191-0.783 0.078-0.981-0.253l-3.59-5.984 4.597-2.554c4.498-2.211 9.502-3.511 14.722-3.706 1.809-0.068 2.891-1.961 1.987-3.467l-2.225-3.708zM27.69 7.315c0.567 0.945 0.363 2.117-0.421 2.84l-2.346-3.909c1.028-0.29 2.191 0.11 2.767 1.069zM33.305 4.859l-1.485 0.825c-0.275 0.153-0.626 0.062-0.784-0.202s-0.064-0.602 0.21-0.755l1.485-0.825c0.275-0.153 0.626-0.062 0.784 0.202s0.064 0.602-0.21 0.755zM26.917 1.71l0.362-1.301c0.082-0.295 0.397-0.469 0.703-0.391s0.488 0.382 0.406 0.677l-0.362 1.301c-0.082 0.294-0.396 0.47-0.703 0.391-0.306-0.079-0.488-0.382-0.406-0.677v0zM34.425 10.758c-0.069 0.247-0.301 0.409-0.554 0.409-0.104 0-0.031 0.011-1.501-0.367-0.306-0.079-0.488-0.382-0.406-0.677s0.397-0.469 0.703-0.391l1.352 0.348c0.306 0.079 0.488 0.382 0.406 0.677z"></path>
</symbol>
<symbol id="phone-icon" viewBox="0 0 22 32">
<title>phone-icon</title>
<path d="M18.838 0.533c1.259 0 2.28 0.955 2.28 2.133v26.667c0 1.178-1.021 2.133-2.28 2.133h-15.678c-1.259 0-2.28-0.955-2.28-2.133v-26.667c0-1.178 1.021-2.133 2.28-2.133h15.678z"></path>
<path d="M14.585 11.981c0.546 0 1.003 0.385 1.063 0.892l0.763 6.552c0.069 0.591-0.426 1.108-1.063 1.108h-8.697c-0.636 0-1.132-0.517-1.063-1.108l0.763-6.552c0.059-0.507 0.517-0.892 1.063-0.892h7.172z"></path>
<path d="M18.946 0.536c1.834 0.080 1.737 2.664-0.099 2.664h-7.42c-4.251 0-7.696 3.224-7.696 7.2v21.067h-0.57c-1.259 0-2.28-0.955-2.28-2.133v-26.667c0-1.178 1.021-2.133 2.28-2.133 0.103 0 15.702-0.001 15.786 0.002z"></path>
<path d="M21.118 26.8v2.533c0 1.178-1.021 2.133-2.28 2.133h-15.678c-1.259 0-2.28-0.955-2.28-2.133v-2.533h20.238z"></path>
<path d="M3.73 26.8v2.541c0 1.737-2.85 1.826-2.85-0.008v-2.533h2.85z"></path>
<path d="M14.585 13.981c-3.453 0-6.276 2.432-6.64 5.565-0.065 0.562-0.572 0.987-1.176 0.987h-0.118c-0.636 0-1.132-0.517-1.063-1.108l0.763-6.552c0.059-0.507 0.517-0.892 1.063-0.892h7.172c0.545 0 1.003 0.384 1.063 0.892 0.069 0.593-0.427 1.108-1.062 1.108z"></path>
<path d="M18.838 0h-15.678c-1.572 0-2.85 1.196-2.85 2.667v26.667c0 1.47 1.279 2.667 2.85 2.667h15.678c1.572 0 2.851-1.196 2.851-2.667v-26.667c0-1.47-1.279-2.667-2.851-2.667zM18.838 30.933h-15.678c-0.943 0-1.71-0.718-1.71-1.6v-26.667c0-0.882 0.767-1.6 1.71-1.6h15.678c0.943 0 1.71 0.718 1.71 1.6v23.6h-16.319c-0.315 0-0.57 0.239-0.57 0.533s0.255 0.533 0.57 0.533h16.319v2c0 0.882-0.767 1.6-1.71 1.6zM12.282 29c0 0.295-0.255 0.533-0.57 0.533h-1.425c-0.315 0-0.57-0.239-0.57-0.533s0.255-0.533 0.57-0.533h1.425c0.315 0 0.57 0.239 0.57 0.533zM6.65 21.067h8.697c0.975 0 1.735-0.793 1.629-1.699l-0.762-6.552c-0.091-0.779-0.791-1.367-1.629-1.367h-0.528v-0.987c-0-1.578-1.372-2.861-3.058-2.861s-3.058 1.283-3.058 2.861v0.987h-0.528c-0.838 0-1.539 0.588-1.629 1.367l-0.762 6.552c-0.106 0.907 0.655 1.699 1.629 1.699zM6.155 19.483l0.762-6.552c0.028-0.237 0.241-0.416 0.496-0.416h0.528v0.832c0 0.295 0.255 0.533 0.57 0.533s0.57-0.239 0.57-0.533v-2.886c0-0.989 0.86-1.794 1.918-1.794s1.918 0.805 1.918 1.794v0.987h-2.466c-0.315 0-0.57 0.239-0.57 0.533s0.255 0.533 0.57 0.533h2.466v0.832c0 0.295 0.255 0.533 0.57 0.533s0.57-0.239 0.57-0.533v-0.832h0.528c0.255 0 0.468 0.179 0.496 0.416l0.762 6.552c0.032 0.276-0.197 0.517-0.496 0.517h-8.697c-0.297 0-0.528-0.24-0.496-0.517z"></path>
</symbol>
<symbol id="twitter-icon" viewBox="0 0 38 32">
<title>twitter-icon</title>
<path d="M33.777 7.62c0.024 0.334 0.024 0.669 0.024 1.003 0 10.2-7.763 21.953-21.953 21.953-4.371 0-8.432-1.266-11.848-3.464 0.621 0.072 1.218 0.095 1.863 0.095 3.607 0 6.927-1.218 9.579-3.297-3.392-0.072-6.235-2.293-7.214-5.351 0.478 0.072 0.956 0.119 1.457 0.119 0.693 0 1.386-0.096 2.030-0.263-3.535-0.717-6.187-3.822-6.187-7.572v-0.096c1.027 0.573 2.222 0.932 3.488 0.979-2.078-1.386-3.44-3.75-3.44-6.426 0-1.433 0.382-2.747 1.051-3.894 3.798 4.682 9.507 7.74 15.909 8.074-0.119-0.573-0.191-1.17-0.191-1.768 0-4.252 3.44-7.716 7.716-7.716 2.222 0 4.228 0.932 5.637 2.437 1.744-0.334 3.416-0.979 4.897-1.863-0.573 1.792-1.792 3.297-3.392 4.252 1.553-0.167 3.058-0.597 4.443-1.194-1.051 1.529-2.365 2.89-3.87 3.989z"></path>
</symbol>
</defs>
</svg>
